# AST/ASF file generated using VICON BodyLanguage
# -----------------------------------------------
:version 1.10
:name VICON
:units
  mass 1.0
  length 0.45
  angle deg
:documentation
   .ast/.asf automatically generated from VICON data using
   VICON BodyBuilder and BodyLanguage model FoxedUp or BRILLIANT.MOD
:root
   order TX TY TZ RX RY RZ
   axis XYZ
   position 0 0 0  
   orientation 0 0 0 
:bonedata
  begin
     id 1 
     name lhipjoint
     direction 0.612567 -0.751349 0.245431 
     length 2.42285 
     axis 0 0 0  XYZ
  end
  begin
     id 2 
     name lfemur
     direction 0.34202 -0.939693 0  
     length 7.11304  
     axis 0 0 20  XYZ
    dof rx ry rz
    limits (-160.0 20.0)
           (-70.0 70.0)
           (-60.0 70.0)
  end
  begin
     id 3 
     name ltibia
     direction 0.34202 -0.939693 0   
     length 7.84529   
     axis 0 0 20   XYZ
    dof rx
    limits (-10.0 170.0)
  end
  begin
     id 4 
     name lfoot
     direction 0.0779239 -0.214094 0.9737   
     length 1.97176   
     axis -90 7.62852e-016 20   XYZ
    dof rx rz
    limits (-45.0 90.0)
           (-70.0 20.0)
  end
  begin
     id 5 
     name ltoes
     direction 1.53565e-011 -4.21709e-011 1   
     length 0.993197   
     axis -90 7.62852e-016 20   XYZ
    dof rx
    limits (-90.0 20.0)
  end
  begin
     id 6 
     name rhipjoint
     direction -0.665722 -0.709315 0.231701   
     length 2.56642  
     axis 0 0 0  XYZ 
  end
  begin
     id 7 
     name rfemur
     direction -0.34202 -0.939693 0   
     length 7.32108   
     axis 0 0 -20   XYZ
    dof rx ry rz
    limits (-160.0 20.0)
           (-70.0 70.0)
           (-70.0 60.0)
  end
  begin
     id 8 
     name rtibia
     direction -0.34202 -0.939693 0   
     length 7.81254   
     axis 0 0 -20   XYZ
    dof rx
    limits (-10.0 170.0)
 end
 begin
     id 9 
     name rfoot
     direction -0.0832806 -0.228812 0.969902   
     length 2.08278  
     axis -90 -7.62852e-016 -20   XYZ
    dof rx rz
    limits (-45.0 90.0)
           (-20.0 70.0)
  end
  begin
     id 10 
     name rtoes
     direction -1.53589e-011 -4.22086e-011 1   
     length 1.04609   
     axis -90 -7.62852e-016 -20   XYZ
    dof rx
    limits (-90.0 20.0)
  end
  begin
     id 11 
     name lowerback
     direction -0.00506013 0.988403 -0.151766   
     length 2.01978   
     axis 0 0 0   XYZ
    dof rx ry rz
    limits (-20.0 45.0)
           (-30.0 30.0)
           (-30.0 30.0)
  end
  begin
     id 12 
     name upperback
     direction -0.00836389 0.99968 0.0238859   
     length 2.01276   
     axis 0 0 0   XYZ
    dof rx ry rz
    limits (-20.0 45.0)
           (-30.0 30.0)
           (-30.0 30.0)
  end
  begin
     id 13 
     name thorax
     direction -0.00684136 0.995386 0.0957043   
     length 2.07303   
     axis 0 0 0   XYZ
    dof rx ry rz
    limits (-20.0 45.0)
           (-30.0 30.0)
           (-30.0 30.0)
  end
  begin
     id 14 
     name lowerneck
     direction -0.0161045 0.999661 0.0204485   
     length 1.91243   
     axis 0 0 0   XYZ
    dof rx ry rz
    limits (-20.0 45.0)
           (-30.0 30.0)
           (-30.0 30.0)
  end
  begin
     id 15 
     name upperneck
     direction 0.0553583 0.990946 -0.122319   
     length 1.91574   
     axis 0 0 0   XYZ
    dof rx ry rz
    limits (-20.0 45.0)
           (-30.0 30.0)
           (-30.0 30.0)
  end
  begin
     id 16
     name head
     direction 0.0180273 0.998839 -0.0446756  
     length 1.92693  
     axis 0 0 0   XYZ
    dof rx ry rz
    limits (-20.0 45.0)
           (-30.0 30.0)
           (-30.0 30.0)
  end
  begin
     id 17 
     name lclavicle
     direction 0.945646 0.319323 -0.0615358  
     length 4.0076  
     axis 0 0 0   XYZ
    dof ry rz
    limits (-20.0 10.0)
           (0.0 20.0)
  end
  begin
     id 18 
     name lhumerus
     direction 1 -4.48967e-011 -2.79996e-027   
     length 5.64147   
     axis 180 -30 -90   XYZ
    dof rx ry rz
    limits (-60.0 90.0)
           (-90.0 90.0)
           (-90.0 90.0)
  end
  begin
     id 19
     name lradius
     direction 1 -4.48976e-011 -9.5122e-027   
     length 2.86444   
     axis 180 -30 -90   XYZ
    dof rx
    limits (-10.0 170.0)
  end
  begin
     id 20
     name lwrist
     direction 1 -4.48983e-011 -1.24047e-026   
     length 1.43222   
     axis 9.05591e-015 90 90   XYZ
    dof ry
    limits (-180.0 0.0)
 end
  begin
     id 21 
     name lhand
     direction 1 -4.4892e-011 -2.48094e-026   
     length 0.722123   
     axis 1.58305e-014 90 90   XYZ
    dof rx rz
    limits (-90.0 90.0)
           (-45.0 45.0)
  end
  begin
     id 22 
     name lfingers
     direction 1 -4.48895e-011 -4.96187e-026   
     length 0.582194   
     axis 3.1661e-014 90 90   XYZ
    dof rx
    limits (0.0 90.0)
  end
  begin
     id 23
     name lthumb
     direction 0.707107 -6.34961e-011 0.707107   
     length 0.835918   
     axis -90 45 2.85299e-015   XYZ
    dof rx rz
    limits (-45.0 45.0)
           (-45.0 45.0)
  end
  begin
     id 24 
     name rclavicle
     direction -0.932635 0.324218 -0.15835   
     length 3.65819  
     axis 0 0 0   XYZ 
    dof ry rz
    limits (-10.0 20.0)
           (-20.0 0.0)
  end
  begin
     id 25 
     name rhumerus
     direction -1 -4.48965e-011 -4.02296e-027  
     length 5.44729   
     axis 180 30 90   XYZ
    dof rx ry rz
    limits (-90.0 60.0)
           (-90.0 90.0)
           (-90.0 90.0)
  end
  begin
     id 26 
     name rradius
     direction -1 -4.48957e-011 -8.81087e-027   
     length 3.08821   
     axis 180 30 90   XYZ
    dof rx
    limits (-10.0 170.0)
  end
  begin
     id 27 
     name rwrist
     direction -1 -4.49015e-011 -1.24047e-026   
     length 1.5441   
     axis 9.05591e-015 -90 -90   XYZ
    dof ry
    limits (-180.0 0.0)
  end
  begin
     id 28
     name rhand
     direction -1 -4.4891e-011 -2.48094e-026   
     length 0.821049   
     axis 1.58305e-014 -90 -90   XYZ
    dof rx rz
    limits (-90.0 90.0)
           (-45.0 45.0)
  end
  begin
     id 29
     name rfingers
     direction -1 -4.48985e-011 -4.96187e-026   
     length 0.661951   
     axis 3.1661e-014 -90 -90   XYZ
    dof rx
    limits (0.0 90.0)
  end
  begin
     id 30
     name rthumb
     direction -0.707107 -6.34906e-011 0.707107   
     length 0.950433   
     axis -90 -45 -2.85299e-015   XYZ
    dof rx rz
    limits (-45.0 45.0)
           (-45.0 45.0)
  end
:hierarchy
  begin
    root lhipjoint rhipjoint lowerback
    lhipjoint lfemur
    lfemur ltibia
    ltibia lfoot
    lfoot ltoes
    rhipjoint rfemur
    rfemur rtibia
    rtibia rfoot
    rfoot rtoes
    lowerback upperback
    upperback thorax
    thorax lowerneck lclavicle rclavicle
    lowerneck upperneck
    upperneck head
    lclavicle lhumerus
    lhumerus lradius
    lradius lwrist
    lwrist lhand lthumb
    lhand lfingers
    rclavicle rhumerus
    rhumerus rradius
    rradius rwrist
    rwrist rhand rthumb
    rhand rfingers
  end

#!OML:ASF F:\VICON\USERDATA\INSTALL\rory3\rory3.ASF
:FULLY-SPECIFIED
:DEGREES
2506
root 3.49476 17.6139 0.364644 -538.229 120.969 -540.685
lowerback 0.810302 -3.90399 1.83768
upperback -6.03925 -4.95753 2.05357
thorax -6.71101 -2.45757 1.44136
lowerneck -12.149 -0.632022 -2.75291
upperneck 23.8058 -0.416417 1.37811
head 9.52079 -0.206155 0.908038
rclavicle -1.23246e-014 3.18055e-015
rhumerus -55.9269 17.5514 -80.6663
rradius 34.4844
rwrist 23.3678
rhand -11.1522 24.4899
rfingers 7.12502
rthumb 14.8739 -4.95613
lclavicle -1.23246e-014 3.18055e-015
lhumerus 58.7648 11.7185 21.9743
lradius 113.18
lwrist 77.9547
lhand 11.2405 8.31928
lfingers 7.12502
lthumb 36.3019 34.561
rfemur -11.1629 15.4106 17.2705
rtibia 22.6952
rfoot -10.8091 11.6742
rtoes 1.39992
lfemur 12.1029 27.8873 -15.1839
ltibia 6.36111e-015
lfoot -13.515 1.35115
ltoes 9.22063
2507
root 3.49598 17.613 0.356526 -538.31 121.678 -540.75
lowerback 0.893248 -4.00933 1.81596
upperback -6.02248 -5.09585 2.11708
thorax -6.7325 -2.52328 1.53422
lowerneck -12.0183 -0.613393 -2.77509
upperneck 23.6531 -0.386651 1.34628
head 9.4416 -0.19977 0.902816
rclavicle 1.77713e-013 2.46493e-014
rhumerus -55.9895 17.6206 -80.6818
rradius 34.4895
rwrist 23.3477
rhand -11.0588 24.4992
rfingers 7.12502
rthumb 14.9639 -4.9402
lclavicle 1.77713e-013 2.46493e-014
lhumerus 58.701 11.7275 22.0254
lradius 113.254
lwrist 77.9512
lhand 11.1344 8.51292
lfingers 7.12502
lthumb 36.2014 34.7797
rfemur -11.308 15.6824 17.2619
rtibia 22.7486
rfoot -10.5522 11.9729
rtoes 1.10372
lfemur 12.2974 28.4355 -15.1129
ltibia 1.59028e-014
lfoot -13.6373 1.39744
ltoes 9.43748
2508
root 3.49644 17.611 0.348322 -538.318 122.409 -540.732
lowerback 0.947637 -4.08798 1.77265
upperback -5.99663 -5.20269 2.14631
thorax -6.72872 -2.57362 1.59855
lowerneck -11.8198 -0.594374 -2.51863
upperneck 23.4442 -0.347273 1.01814
head 9.3291 -0.196478 0.749169
rclavicle -3.08116e-014 5.56597e-015
rhumerus -55.9871 17.5659 -80.6426
rradius 34.3787
rwrist 23.3258
rhand -11.0214 24.6204
rfingers 7.12502
rthumb 14.9998 -4.81629
lclavicle -3.08116e-014 5.56597e-015
lhumerus 58.6961 11.7354 22.1051
lradius 113.474
lwrist 77.8613
lhand 10.9851 8.77463
lfingers 7.12502
lthumb 36.0601 35.0763
rfemur -11.4586 15.9118 17.204
rtibia 22.7855
rfoot -10.1678 12.3234
rtoes 2.01874
lfemur 12.4854 29.005 -15.0803
ltibia -1.59028e-015
lfoot -13.7702 1.40587
ltoes 9.73833
2509
root 3.49561 17.607 0.344284 -538.724 123.158 -541.173
lowerback 0.981996 -4.12745 1.93092
upperback -5.95737 -5.24264 2.25625
thorax -6.71118 -2.59882 1.62913
lowerneck -11.6365 -0.600815 -2.25789
upperneck 23.2786 -0.334356 0.654773
head 9.23557 -0.208434 0.580715
rclavicle -1.2921e-014 2.46493e-014
rhumerus -56.0598 17.4246 -80.5574
rradius 34.3638
rwrist 23.3423
rhand -10.9721 24.6562
rfingers 7.12502
rthumb 15.0474 -4.77692
lclavicle -1.2921e-014 2.46493e-014
lhumerus 58.7397 11.6705 22.241
lradius 113.616
lwrist 77.7589
lhand 10.8625 8.95783
lfingers 7.12502
lthumb 35.9439 35.2881
rfemur -11.5843 16.2485 17.4451
rtibia 22.7868
rfoot -9.81537 12.6263
rtoes 2.54783
lfemur 12.7058 29.5901 -14.7324
ltibia 7.95139e-015
lfoot -13.902 1.34713
ltoes 10.8946
2510
root 3.49542 17.6016 0.339499 -538.793 123.829 -541.281
lowerback 0.939455 -4.1645 1.95987
upperback -5.90187 -5.29344 2.28877
thorax -6.62667 -2.62571 1.64349
lowerneck -11.722 -0.602681 -2.17274
upperneck 23.3 -0.33388 0.558515
head 9.25882 -0.212879 0.533097
rclavicle -1.32192e-014 1.19271e-014
rhumerus -56.1336 17.3529 -80.5659
rradius 34.3896
rwrist 23.3349
rhand -10.9224 24.4133
rfingers 7.12502
rthumb 15.0953 -5.01627
lclavicle -1.32192e-014 1.19271e-014
lhumerus 58.8274 11.6009 22.3525
lradius 113.586
lwrist 77.6032
lhand 10.841 8.68783
lfingers 7.12502
lthumb 35.9236 35.0231
rfemur -11.7143 16.4492 17.4846
rtibia 22.7784
rfoot -9.53877 12.9488
rtoes 2.70423
lfemur 12.8377 30.1033 -14.6398
ltibia -3.18055e-015
lfoot -14.0192 1.35188
ltoes 11.834
2511
root 3.49578 17.5921 0.332377 -538.649 124.436 -541.139
lowerback 0.910588 -4.23222 1.89141
upperback -5.83713 -5.39314 2.27451
thorax -6.53479 -2.67347 1.66646
lowerneck -11.9698 -0.56607 -2.20771
upperneck 23.4061 -0.292776 0.641267
head 9.34209 -0.189787 0.572096
rclavicle -1.86858e-014 -7.95139e-015
rhumerus -56.1308 17.2826 -80.5739
rradius 34.3334
rwrist 23.3814
rhand -10.7997 24.0904
rfingers 7.12502
rthumb 15.2134 -5.3303
lclavicle -1.86858e-014 -7.95139e-015
lhumerus 58.8973 11.6015 22.4575
lradius 113.616
lwrist 77.7177
lhand 10.8056 8.57586
lfingers 7.12502
lthumb 35.8901 34.9193
rfemur -11.8303 16.5873 17.3624
rtibia 22.7896
rfoot -9.30833 13.2984
rtoes 2.76183
lfemur 12.9498 30.5538 -14.7226
ltibia 2.54444e-014
lfoot -14.1404 1.40844
ltoes 11.9121
2512
root 3.49991 17.5922 0.325184 -538.702 125.077 -541.258
lowerback 0.904351 -4.29429 1.99789
upperback -5.83004 -5.47101 2.30366
thorax -6.53084 -2.71707 1.64273
lowerneck -11.9685 -0.59937 -2.16426
upperneck 23.3734 -0.332416 0.554795
head 9.3309 -0.215546 0.530044
rclavicle 2.80286e-014 7.95139e-016
rhumerus -56.2606 17.2586 -80.6674
rradius 34.2744
rwrist 23.3988
rhand -10.9773 24.0632
rfingers 7.12502
rthumb 15.0424 -5.37037
lclavicle 2.80286e-014 7.95139e-016
lhumerus 58.912 11.5801 22.533
lradius 113.664
lwrist 77.9151
lhand 10.7186 8.72288
lfingers 7.12502
lthumb 35.8076 35.0864
rfemur -12.0337 16.8798 17.3631
rtibia 22.8288
rfoot -9.03834 13.5791
rtoes 3.45128
lfemur 13.0503 31.0406 -14.6444
ltibia -1.59028e-014
lfoot -14.24 1.40723
ltoes 12.4772
2513
root 3.50393 17.5954 0.318098 -538.636 125.691 -541.241
lowerback 0.94353 -4.32771 2.01731
upperback -5.879 -5.51204 2.31476
thorax -6.60632 -2.73773 1.65296
lowerneck -11.948 -0.826172 -2.12771
upperneck 23.5033 -0.610014 0.346772
head 9.37637 -0.366046 0.420485
rclavicle 1.34478e-013 3.97569e-015
rhumerus -56.5225 17.3024 -80.8234
rradius 34.2679
rwrist 23.2551
rhand -11.3102 24.2571
rfingers 7.12502
rthumb 14.7216 -5.20017
lclavicle 1.34478e-013 3.97569e-015
lhumerus 58.968 11.4386 22.6244
lradius 113.586
lwrist 77.802
lhand 10.9201 8.65408
lfingers 7.12502
lthumb 35.9985 34.971
rfemur -12.2648 17.1192 17.2822
rtibia 22.8785
rfoot -8.85004 13.7783
rtoes 3.70296
lfemur 13.1204 31.5017 -14.6689
ltibia -6.36111e-015
lfoot -14.3351 1.40978
ltoes 12.9442
2514
root 3.50286 17.5899 0.311602 -538.595 126.238 -541.215
lowerback 1.00901 -4.37299 1.94101
upperback -5.88866 -5.57271 2.35497
thorax -6.64223 -2.76257 1.74679
lowerneck -11.3207 -0.559844 -2.30217
upperneck 22.7019 -0.298483 0.650112
head 8.97571 -0.202667 0.587292
rclavicle 1.27222e-014 -7.95139e-016
rhumerus -56.6965 17.3129 -80.8885
rradius 34.2843
rwrist 23.1432
rhand -11.5135 24.1505
rfingers 7.12502
rthumb 14.5258 -5.32093
lclavicle 1.27222e-014 -7.95139e-016
lhumerus 59.0275 11.3401 22.7298
lradius 113.486
lwrist 77.6658
lhand 11.2018 8.524
lfingers 7.12502
lthumb 36.2653 34.7749
rfemur -12.4285 17.2767 17.2355
rtibia 22.969
rfoot -8.66093 14.04
rtoes 2.75338
lfemur 13.1946 31.8919 -14.6772
ltibia 1.11319e-014
lfoot -14.4294 1.4386
ltoes 13.2876
